# xmcd
#
# Track frame offsets: 
#        180
#        22549
#        40847
#        63210
#        81807
#        102464
#        123230
#        148723
#        172151
#        191571
#
# Disc length: 2803 seconds
#
# Revision: 1
# Processed by: cddbd v1.5.2PL0 Copyright (c) Steve Scherf et al.
# Submitted via: ExactAudioCopy v1.0b3
#
DISCID=7e0af10a
DTITLE=Marcus Lewis - I Like It That Way
DYEAR=1995
DGENRE=R&B
TTITLE0=I Like It That Way
TTITLE1=Last Night
TTITLE2=Love Was Here, Now It's Gone
TTITLE3=A Place You've Never Been
TTITLE4=It's So Nice To Make Love
TTITLE5=She's Got It Going On
TTITLE6=How Much More
TTITLE7=Never Gonna Let You Go
TTITLE8=I'll Always Love You
TTITLE9=(Love) Is There A Cure For Me
EXTD=
EXTT0=
EXTT1=
EXTT2=
EXTT3=
EXTT4=
EXTT5=
EXTT6=
EXTT7=
EXTT8=
EXTT9=
PLAYORDER=
